<svg xmlns="http://www.w3.org/2000/svg" id="Capa_2" viewBox="0 0 153.4 35.9"><defs><style>.cls-1{fill:#fff;}.cls-2{fill:#d11e79;}.cls-3{fill:gray;}.cls-4{fill:#82005d;}</style></defs><g id="Capa_1-2"><g><path class="cls-4" d="M34.5,20.8l-.2-.2L19.6,5.8l-2.3,4.5,11,11h0l-16.7,6.1v5.3l22.1-7.9c.8-.3,1.4-1,1.6-1.8,.2-.8,0-1.7-.7-2.3Z"></path><path class="cls-2" d="M14.4,7.4l2.9,3c.7-1.6,1.5-3,2.2-4.6L15.2,.9c-.6-.6-1.5-.9-2.3-.7-.8,.2-1.5,.8-1.8,1.6L4.7,19.6c1.8,0,3.5,0,5.3,0L14.4,7.4Z"></path><path class="cls-3" d="M12.4,27.2l-5.8,2.1,2.8-7.7c-1.8,0-3.5,0-5.3,0L.1,32.6c-.3,.9-.1,1.9,.6,2.6,.7,.7,1.7,.9,2.6,.6l12.4-4.5-3.4-4.1Z"></path><g><g><path class="cls-1" d="M41.6,20.6L21,0h7.7l7.7,7.7V0h5.2V20.6Z"></path><path class="cls-1" d="M42.9,9c0-2.5,.9-4.6,2.6-6.4,1.8-1.8,3.9-2.6,6.4-2.6s4.6,.9,6.4,2.6c1.8,1.8,2.6,3.9,2.6,6.4v9h-18V9Zm12.9,0c0-1.1-.4-2-1.1-2.7-.8-.8-1.7-1.1-2.7-1.1s-2,.4-2.7,1.1c-.8,.8-1.1,1.7-1.1,2.7v3.9h7.7v-3.9Z"></path><path class="cls-1" d="M62.2,0h5.2V12.9h7.7v5.2h-12.9V0Z"></path><path class="cls-1" d="M76.4,0h12.9V5.2h-12.9V0Zm0,6.4h12.9v5.2h-12.9V6.4Zm0,6.4h12.9v5.2h-12.9v-5.2Z"></path><path class="cls-1" d="M121.8,10.3h5.3c-.3,1.9-1.1,3.6-2.6,5.1-1.8,1.8-3.9,2.6-6.4,2.6s-4.6-.9-6.4-2.6c-1.8-1.8-2.6-3.9-2.6-6.4s.9-4.6,2.6-6.4c1.8-1.8,3.9-2.6,6.4-2.6s4.6,.9,6.4,2.6,2.3,3.1,2.6,5.1h-5.3c-.2-.5-.5-1-.9-1.4-.8-.8-1.7-1.1-2.7-1.1s-2,.4-2.7,1.1c-.8,.8-1.1,1.7-1.1,2.7s.4,2,1.1,2.7c.8,.8,1.7,1.1,2.7,1.1s2-.4,2.7-1.1c.4-.4,.7-.9,.9-1.4Z"></path><path class="cls-1" d="M133.6,0V18h-5.2V0h5.2Z"></path><path class="cls-1" d="M134.9,9c0-2.5,.9-4.6,2.6-6.4,1.8-1.8,3.9-2.6,6.4-2.6s4.6,.9,6.4,2.6c1.8,1.8,2.6,3.9,2.6,6.4v9h-18V9Zm12.9,0c0-1.1-.4-2-1.1-2.7-.8-.8-1.7-1.1-2.7-1.1s-2,.4-2.7,1.1c-.8,.8-1.1,1.7-1.1,2.7v3.9h7.7v-3.9Z"></path><path class="cls-1" d="M105.6,2.6c-1.8-1.8-3.9-2.6-6.4-2.6s-4.6,.9-6.4,2.6c-1.8,1.8-2.6,3.9-2.6,6.4v9h5.1v-5.2h0v-3.9c0-1.1,.4-2,1.1-2.7,.8-.8,1.7-1.1,2.7-1.1s2,.4,2.7,1.1c.8,.8,1.1,1.7,1.1,2.7v3.9h0v5.2h5.2V9c0-2.5-.9-4.6-2.6-6.4Z"></path></g><g><path class="cls-2" d="M43.3,22.9c1.1,0,1.7,.9,1.7,1.8s-.6,1.8-1.7,1.8h-1.2v1.8h-.8v-5.3h1.9Zm0,2.8c.6,0,1-.5,1-1s-.3-1-1-1h-1.2v2h1.2Z"></path><path class="cls-2" d="M51.7,25.5h.9c.6,0,1-.5,1-.9s-.3-.9-1-.9h-1.2v4.5h-.8v-5.3h1.9c1.1,0,1.7,.8,1.7,1.7s-.5,1.5-1.4,1.6l1.7,2h-1l-1.9-2.3v-.4Z"></path><path class="cls-2" d="M60.6,23.6c.5-.5,1.2-.8,1.9-.8s1.4,.3,1.9,.8c.5,.5,.8,1.2,.8,1.9s-.3,1.4-.8,1.9c-.5,.5-1.2,.8-1.9,.8s-1.4-.3-1.9-.8c-.5-.5-.8-1.2-.8-1.9s.3-1.4,.8-1.9Zm3.3,.5c-.4-.4-.8-.6-1.4-.6s-1,.2-1.4,.6c-.3,.3-.6,.8-.6,1.4s.2,1,.6,1.4c.3,.4,.8,.6,1.4,.6s1-.2,1.4-.6c.3-.3,.6-.8,.6-1.4s-.2-1-.6-1.4Z"></path><path class="cls-2" d="M72.8,22.9c1.7,0,2.6,1.3,2.6,2.6s-.9,2.6-2.6,2.6h-1.9v-5.3h1.9Zm0,4.5c1.2,0,1.8-.9,1.8-1.9s-.6-1.9-1.8-1.9h-1.1v3.8h1.1Z"></path><path class="cls-2" d="M81.2,26.6v-3.7h.8v3.7c0,.6,.6,.9,1.2,.9s1.2-.3,1.2-.9v-3.7h.8v3.7c0,1.1-1,1.6-1.9,1.6s-2-.6-2-1.6Z"></path><path class="cls-2" d="M91.5,23.6c.5-.5,1.1-.8,1.8-.8,1.2,0,2.2,.8,2.5,1.9h-.8c-.3-.8-.9-1.2-1.7-1.2s-1,.2-1.3,.6c-.3,.3-.5,.8-.5,1.4s.2,1,.5,1.3c.3,.3,.8,.6,1.3,.6,.8,0,1.5-.5,1.8-1.3h.7c-.3,1.2-1.3,2-2.5,2s-1.4-.3-1.8-.8c-.5-.5-.8-1.1-.8-1.9s.3-1.4,.8-1.9Z"></path><path class="cls-2" d="M102.2,23.6c.5-.5,1.1-.8,1.8-.8,1.2,0,2.2,.8,2.5,1.9h-.8c-.3-.8-.9-1.2-1.7-1.2s-1,.2-1.3,.6c-.3,.3-.5,.8-.5,1.4s.2,1,.5,1.3c.3,.3,.8,.6,1.3,.6,.8,0,1.5-.5,1.8-1.3h.7c-.3,1.2-1.3,2-2.5,2s-1.4-.3-1.8-.8c-.5-.5-.8-1.1-.8-1.9s.3-1.4,.8-1.9Z"></path><polygon class="cls-2" points="114.6 23.6 113.7 23.6 113.7 27.4 114.6 27.4 114.6 28.1 111.9 28.1 111.9 27.4 112.9 27.4 112.9 23.6 111.9 23.6 111.9 22.9 114.6 22.9 114.6 23.6"></polygon><path class="cls-2" d="M120.7,23.6c.5-.5,1.2-.8,1.9-.8s1.4,.3,1.9,.8c.5,.5,.8,1.2,.8,1.9s-.3,1.4-.8,1.9c-.5,.5-1.2,.8-1.9,.8s-1.4-.3-1.9-.8c-.5-.5-.8-1.2-.8-1.9s.3-1.4,.8-1.9Zm3.3,.5c-.4-.4-.8-.6-1.4-.6s-1,.2-1.4,.6c-.3,.3-.6,.8-.6,1.4s.2,1,.6,1.4c.3,.4,.8,.6,1.4,.6s1-.2,1.4-.6c.3-.3,.6-.8,.6-1.4s-.2-1-.6-1.4Z"></path><polygon class="cls-2" points="131.1 28.1 131.1 22.9 131.7 22.9 134.2 26.6 134.2 22.9 135 22.9 135 28.1 134.4 28.1 131.8 24.5 131.8 28.1 131.1 28.1"></polygon><polygon class="cls-2" points="141.5 27.4 144 27.4 144 28.1 140.8 28.1 140.8 22.9 144 22.9 144 23.6 141.5 23.6 141.5 25.1 143.9 25.1 143.9 25.9 141.5 25.9 141.5 27.4"></polygon><path class="cls-2" d="M152.5,24.2c-.1-.5-.6-.7-1.1-.7-.4,0-.7,.1-1,.4-.1,.1-.1,.3-.1,.5,0,.5,.6,.6,1.2,.7,.7,0,1.6,.3,1.8,1.1,0,.1,0,.2,0,.3,0,1-1,1.6-2,1.6s-1.8-.5-1.9-1.4h0l.8-.2h0c0,.6,.6,.8,1.1,.8s1.2-.3,1.2-.9,0-.1,0-.2c0-.4-.6-.5-1.2-.5-.8,0-1.8-.3-1.9-1.4h0c0-.3,0-.7,.3-1,.4-.5,1-.7,1.6-.7s1.7,.4,1.8,1.4h-.8Z"></path></g></g></g></g></svg>